<?xml version="1.0" encoding="utf-8"?>
<!-- Generator: Adobe Illustrator 23.0.3, SVG Export Plug-In . SVG Version: 6.00 Build 0)  -->
<svg version="1.1" id="圖層_1" xmlns="http://www.w3.org/2000/svg" xmlns:xlink="http://www.w3.org/1999/xlink" x="0px" y="0px"
	 viewBox="0 0 60 46.41" style="enable-background:new 0 0 60 46.41;" xml:space="preserve">
<style type="text/css">
	.st0{fill:#808080;}
	.st1{fill:#34CA59;}
	.st2{fill:#E6004A;}
	.st3{fill:#0251E6;}
	.st4{fill:#00C6B3;}
	.st5{fill:#FF9F08;}
	.st6{fill:#FF9D03;}
	.st7{opacity:0.998;fill:none;stroke:#808080;enable-background:new    ;}
	.st8{opacity:0.998;fill:#FFC7C8;enable-background:new    ;}
	.st9{opacity:0.998;fill:#CCDCFA;enable-background:new    ;}
	.st10{opacity:0.998;fill:#CCFFD8;enable-background:new    ;}
</style>
<g id="Group_267_1_" transform="translate(-1606.836 -975.521)">
	<g id="Group_265_1_" transform="translate(1606.836 975.521)">
		<g id="Group_257_1_" transform="translate(0.016 0.64)">
			<g id="Group_251_1_" transform="translate(0.996 12.058)">
				<g id="Group_98_1_" transform="translate(0 0)">
					<path id="Path_65_1_" class="st0" d="M33.48,18.66H4.13c-1.36,0-2.47,1.1-2.47,2.47c0,1.36,1.1,2.47,2.47,2.47h29.35
						c1.36,0,2.47-1.1,2.47-2.47C35.95,19.77,34.85,18.66,33.48,18.66L33.48,18.66z"/>
				</g>
			</g>
			<g id="Group_252_1_" transform="translate(1.993 0)">
				<g id="Group_100_1_">
					<path id="Path_66_1_" class="st0" d="M5.58,1.12c-1.36,0-2.45,1.1-2.45,2.45v29.6c-0.11,1.35,0.89-0.6,2.24-0.49
						c1.35,0.11,2.54,2.25,2.65,0.9c0.01-0.14,0.01-0.27,0-0.41V3.58C8.02,2.23,6.93,1.13,5.58,1.12z"/>
				</g>
			</g>
			<g id="Group_253_1_" transform="translate(11.958 3.588)">
				<g id="Group_102_1_">
					<path id="Path_67_1_" class="st0" d="M20.08,6.34c-1.36,0-2.45,1.1-2.45,2.45v20.79c-0.11,1.35,0.08,1.73,1.43,1.84
						s3.34-0.08,3.46-1.43c0.01-0.14,0.01-0.27,0-0.41V8.8C22.52,7.45,21.43,6.35,20.08,6.34z"/>
				</g>
			</g>
			<g id="Group_254_1_" transform="translate(0 0)">
				<g id="Group_104_1_">
					<path id="Path_68_1_" class="st0" d="M21.79,2.16c-0.77-1.1-2.29-1.36-3.39-0.59c-0.01,0-0.01,0.01-0.02,0.01L1.25,13.91
						c-1.1,0.8-1.35,2.33-0.57,3.44c0.77,1.1,2.29,1.36,3.39,0.59c0.01-0.01,0.02-0.01,0.02-0.02L21.22,5.59
						C22.32,4.79,22.57,3.26,21.79,2.16z"/>
				</g>
			</g>
			<g id="Group_255_1_" transform="translate(6.976 0)">
				<g id="Group_106_1_" transform="translate(0 0)">
					<path id="Path_69_1_" class="st0" d="M31.37,13.91L14.24,1.58c-1.09-0.78-2.62-0.53-3.4,0.56c0,0-0.01,0.01-0.01,0.01
						c-0.78,1.11-0.53,2.64,0.57,3.44l17.12,12.33c1.09,0.79,2.61,0.54,3.4-0.55c0.01-0.01,0.01-0.02,0.02-0.02
						C32.72,16.24,32.47,14.71,31.37,13.91z"/>
				</g>
			</g>
			<g id="Group_256_1_" transform="translate(6.975 9.043)">
				<g id="Group_108_1_">
					<path id="Path_70_1_" class="st0" d="M12.83,14.28c-1.36,0-2.45,1.1-2.45,2.45v7.4c-0.11,1.35,0.89-0.6,2.24-0.48
						c1.35,0.11,2.54,2.24,2.65,0.89c0.01-0.14,0.01-0.27,0-0.41v-7.4C15.27,15.38,14.18,14.29,12.83,14.28z"/>
				</g>
			</g>
		</g>
		<g id="Group_258_1_" transform="translate(23.701 16.833) rotate(90)">
			<g id="Group_100-2_1_" transform="translate(0 0)">
				<path id="Path_66-2_1_" class="st0" d="M27.13-34.68c-1.36,0-2.45,1.1-2.45,2.45v53.27c-0.11,1.35,0.89,2.54,2.24,2.65
					c1.35,0.11,2.54-0.89,2.65-2.24c0.01-0.14,0.01-0.27,0-0.41v-53.27C29.57-33.58,28.48-34.67,27.13-34.68z"/>
			</g>
		</g>
		<g id="Group_263_1_" transform="translate(25.265 14.708) rotate(180)">
			<g id="Group_260_1_" transform="translate(4.284 0) rotate(14)">
				<g id="Group_104-2_1_" transform="translate(0 0)">
					<path id="Path_68-2_1_" class="st1" d="M-21.03-2.59c-0.77,1.1-2.29,1.36-3.39,0.59c-0.01,0-0.01-0.01-0.02-0.01l-9.57-7.02
						c-1.1-0.8-1.35-2.33-0.57-3.44c0.77-1.1,2.29-1.36,3.39-0.59c0.01,0.01,0.02,0.01,0.02,0.02l9.57,7.02
						C-20.5-5.23-20.24-3.7-21.03-2.59z"/>
				</g>
			</g>
			<g id="Group_262_1_" transform="translate(6.895 4.726) rotate(166)">
				<g id="Group_104-3_1_" transform="translate(0 0)">
					<path id="Path_68-3_1_" class="st1" d="M36.58,21.82c-0.77-1.1-2.29-1.36-3.39-0.59c-0.01,0-0.01,0.01-0.02,0.01l-9.57,7.02
						c-1.1,0.8-1.35,2.33-0.57,3.44c0.77,1.1,2.29,1.36,3.39,0.59c0.01-0.01,0.02-0.01,0.02-0.02l9.57-7.02
						C37.11,24.46,37.36,22.93,36.58,21.82z"/>
				</g>
			</g>
			<g id="Group_261_1_" transform="translate(3.95 1.55)">
				<g id="Group_100-3_1_" transform="translate(0 0)">
					<path id="Path_66-3_1_" class="st1" d="M-28.76-19.33c-1.36,0-2.45,1.1-2.45,2.45V10.5c-0.11,1.35,0.89,2.54,2.24,2.65
						c1.35,0.11,2.54-0.89,2.65-2.24c0.01-0.14,0.01-0.27,0-0.41v-27.38C-26.32-18.23-27.41-19.32-28.76-19.33z"/>
				</g>
			</g>
		</g>
	</g>
</g>
</svg>
