<?xml version="1.0" encoding="utf-8"?>
<!-- Generator: Adobe Illustrator 23.0.3, SVG Export Plug-In . SVG Version: 6.00 Build 0)  -->
<svg version="1.1" id="圖層_1" xmlns="http://www.w3.org/2000/svg" xmlns:xlink="http://www.w3.org/1999/xlink" x="0px" y="0px"
	 viewBox="0 0 60 46.41" style="enable-background:new 0 0 60 46.41;" xml:space="preserve">
<style type="text/css">
	.st0{fill:#808080;}
	.st1{fill:#34CA59;}
	.st2{fill:#E6004A;}
	.st3{fill:#0251E6;}
	.st4{fill:#00C6B3;}
	.st5{fill:#FF9F08;}
	.st6{fill:#FF9D03;}
	.st7{opacity:0.998;fill:none;stroke:#808080;enable-background:new    ;}
	.st8{opacity:0.998;fill:#FFC7C8;enable-background:new    ;}
	.st9{opacity:0.998;fill:#CCDCFA;enable-background:new    ;}
	.st10{opacity:0.998;fill:#CCFFD8;enable-background:new    ;}
</style>
<g id="Group_267" transform="translate(-1606.836 -975.521)">
	<g id="Group_265" transform="translate(1606.836 975.521)">
		<g id="Group_257" transform="translate(0.016 0.64)">
			<g id="Group_251" transform="translate(0.996 12.058)">
				<g id="Group_98" transform="translate(0 0)">
					<path id="Path_65" class="st0" d="M33.48,18.31H4.13c-1.36,0-2.47,1.1-2.47,2.47c0,1.36,1.1,2.47,2.47,2.47h29.35
						c1.36,0,2.47-1.1,2.47-2.47C35.95,19.41,34.85,18.31,33.48,18.31L33.48,18.31z"/>
				</g>
			</g>
			<g id="Group_252" transform="translate(1.993 0)">
				<g id="Group_100">
					<path id="Path_66" class="st0" d="M5.58,0.77c-1.36,0-2.45,1.1-2.45,2.45v29.6c-0.11,1.35,0.89,1.76,2.24,1.87
						c1.35,0.11,2.54-0.11,2.65-1.46c0.01-0.14,0.01-0.27,0-0.41V3.22C8.02,1.87,6.93,0.78,5.58,0.77z"/>
				</g>
			</g>
			<g id="Group_253" transform="translate(11.958 3.588)">
				<g id="Group_102">
					<path id="Path_67" class="st0" d="M20.08,5.99c-1.36,0-2.45,1.1-2.45,2.45v20.79c-0.11,1.35,0.89,0.76,2.24,0.87
						s2.54,0.89,2.65-0.46c0.01-0.14,0.01-0.27,0-0.41V8.44C22.51,7.09,21.43,6,20.08,5.99z"/>
				</g>
			</g>
			<g id="Group_254" transform="translate(0 0)">
				<g id="Group_104">
					<path id="Path_68" class="st0" d="M21.79,1.8c-0.77-1.1-2.29-1.36-3.39-0.59c-0.01,0-0.01,0.01-0.02,0.01L1.25,13.56
						c-1.1,0.8-1.35,2.33-0.57,3.44c0.77,1.1,2.29,1.36,3.39,0.59c0.01-0.01,0.02-0.01,0.02-0.02L21.22,5.24
						C22.32,4.44,22.57,2.91,21.79,1.8z"/>
				</g>
			</g>
			<g id="Group_255" transform="translate(6.976 0)">
				<g id="Group_106" transform="translate(0 0)">
					<path id="Path_69" class="st0" d="M31.37,13.56L14.24,1.23c-1.09-0.78-2.62-0.53-3.4,0.56c0,0-0.01,0.01-0.01,0.01
						c-0.78,1.11-0.53,2.64,0.57,3.44l17.12,12.33c1.09,0.79,2.61,0.54,3.4-0.55c0.01-0.01,0.01-0.02,0.02-0.02
						C32.72,15.89,32.46,14.36,31.37,13.56z"/>
				</g>
			</g>
			<g id="Group_256" transform="translate(6.975 9.043)">
				<g id="Group_108">
					<path id="Path_70" class="st0" d="M12.83,13.92c-1.36,0-2.45,1.1-2.45,2.45v7.4c-0.11,1.35,0.89-0.24,2.24-0.13
						c1.35,0.11,2.54,1.89,2.65,0.54c0.01-0.14,0.01-0.27,0-0.41v-7.4C15.27,15.03,14.18,13.93,12.83,13.92z"/>
				</g>
			</g>
		</g>
		<g id="Group_258" transform="translate(23.701 16.833) rotate(90)">
			<g id="Group_100-2" transform="translate(0 0)">
				<path id="Path_66-2" class="st0" d="M26.78-34.68c-1.36,0-2.45,1.1-2.45,2.45v53.27c-0.11,1.35,0.89,2.54,2.24,2.65
					c1.35,0.11,2.54-0.89,2.65-2.24c0.01-0.14,0.01-0.27,0-0.41v-53.27C29.22-33.58,28.13-34.67,26.78-34.68z"/>
			</g>
		</g>
		<g id="Group_263" transform="translate(15.264 0)">
			<g id="Group_260" transform="translate(4.284 0) rotate(14)">
				<g id="Group_104-2" transform="translate(0 0)">
					<path id="Path_68-2" class="st2" d="M41.76,3.84c-0.77,1.1-2.29,1.36-3.39,0.59c-0.01,0-0.01-0.01-0.02-0.01l-9.57-7.02
						c-1.1-0.8-1.35-2.33-0.57-3.44c0.77-1.1,2.29-1.36,3.39-0.59c0.01,0.01,0.02,0.01,0.02,0.02l9.57,7.02
						C42.29,1.19,42.54,2.73,41.76,3.84z"/>
				</g>
			</g>
			<g id="Group_262" transform="translate(6.895 4.726) rotate(166)">
				<g id="Group_104-3" transform="translate(0 0)">
					<path id="Path_68-3" class="st2" d="M-15.84-13.33c-0.77-1.1-2.29-1.36-3.39-0.59c-0.01,0-0.01,0.01-0.02,0.01l-9.57,7.02
						c-1.1,0.8-1.35,2.33-0.57,3.44c0.77,1.1,2.29,1.36,3.39,0.59c0.01-0.01,0.02-0.01,0.02-0.02l9.57-7.02
						C-15.31-10.69-15.06-12.22-15.84-13.33z"/>
				</g>
			</g>
			<g id="Group_261" transform="translate(3.95 1.55)">
				<g id="Group_100-3" transform="translate(0 0)">
					<path id="Path_66-3" class="st2" d="M30.61,2.09c-1.36,0-2.45,1.1-2.45,2.45v27.38c-0.11,1.35,0.89,2.54,2.24,2.65
						s2.54-0.89,2.65-2.24c0.01-0.14,0.01-0.27,0-0.41V4.55C33.05,3.2,31.96,2.1,30.61,2.09z"/>
				</g>
			</g>
		</g>
	</g>
</g>
</svg>
