<?xml version="1.0" encoding="iso-8859-1"?>
<!-- Generator: Adobe Illustrator 19.0.0, SVG Export Plug-In . SVG Version: 6.00 Build 0)  -->
<svg version="1.1" id="Layer_1" xmlns="http://www.w3.org/2000/svg" xmlns:xlink="http://www.w3.org/1999/xlink" x="0px" y="0px"
	 viewBox="0 0 512 512" style="enable-background:new 0 0 512 512;" xml:space="preserve">
<path style="fill:#65C5B8;" d="M430.933,20.267v156.8c0,10.667-8.533,20.267-20.267,20.267H86.4c-10.667,0-20.267-9.6-20.267-20.267
	v-156.8C66.133,9.6,74.667,0,86.4,0h324.267C421.333,0,430.933,9.6,430.933,20.267z"/>
<path style="fill:#F6F7F7;" d="M92.8,149.333V52.267c11.733,0,21.333-9.6,21.333-21.333h265.6c0,11.733,9.6,21.333,21.333,21.333
	v97.067c-11.733,0-21.333,9.6-21.333,21.333h-265.6C114.133,158.933,104.533,149.333,92.8,149.333z"/>
<circle style="fill:#12934F;" cx="163.2" cy="101.333" r="11.733"/>
<g>
	<circle style="fill:#4FBFA8;" cx="163.2" cy="101.333" r="11.733"/>
	<circle style="fill:#4FBFA8;" cx="329.6" cy="101.333" r="11.733"/>
</g>
<path style="fill:#65C5B8;" d="M290.133,101.333c0,30.933-19.2,55.467-43.733,55.467c-3.2,0-6.4,0-9.6-1.067
	c-19.2-5.333-34.133-27.733-34.133-54.4c0-1.067,0-2.133,0-3.2c1.067-28.8,20.267-52.267,43.733-52.267
	C270.933,44.8,290.133,70.4,290.133,101.333z"/>
<path style="fill:#FFFFFF;" d="M243.2,122.667v-19.2c-6.4-2.133-10.667-4.267-13.867-7.467c-3.2-3.2-4.267-7.467-4.267-12.8
	s2.133-9.6,5.333-12.8s7.467-6.4,12.8-6.4v-4.267h6.4V64c5.333,1.067,8.533,2.133,11.733,5.333c3.2,3.2,5.333,6.4,5.333,11.733
	L256,82.133c-1.067-3.2-2.133-6.4-5.333-7.467V92.8c7.467,2.133,12.8,4.267,14.933,7.467c3.2,3.2,4.267,7.467,4.267,12.8
	c0,5.333-2.133,10.667-5.333,13.867c-3.2,4.267-8.533,6.4-13.867,7.467v8.533h-6.4V134.4c-5.333-1.067-9.6-3.2-12.8-6.4
	c-3.2-3.2-5.333-8.533-6.4-13.867l11.733-1.067c0,2.133,1.067,4.267,3.2,6.4C240,120.533,241.067,122.667,243.2,122.667z
	 M243.2,73.6c-2.133,1.067-3.2,2.133-4.267,3.2S236.8,80,236.8,82.133s0,3.2,1.067,4.267c1.067,1.067,2.133,2.133,4.267,3.2v-16
	H243.2z M249.6,123.733c2.133,0,4.267-1.067,5.333-3.2s2.133-4.267,2.133-6.4c0-2.133-1.067-4.267-2.133-5.333
	c-1.067-1.067-3.2-3.2-6.4-3.2v18.133H249.6z"/>
<path style="fill:#40596B;" d="M475.733,512h-454.4C9.6,512,0,502.4,0,490.667v-368c0-11.733,9.6-21.333,21.333-21.333h454.4
	c11.733,0,21.333,9.6,21.333,21.333v368C497.067,502.4,487.467,512,475.733,512z"/>
<path style="fill:#FF7058;" d="M512,397.867h-89.6c-45.867,0-83.2-37.333-83.2-83.2l0,0c0-45.867,37.333-83.2,83.2-83.2H512V397.867
	z"/>
<circle style="fill:#F2F2F2;" cx="422.4" cy="314.667" r="39.467"/>
<path style="fill:#CDD6E0;" d="M451.2,304c0,21.333-18.133,39.467-39.467,39.467c-8.533,0-16-2.133-22.4-6.4
	c7.467,10.667,19.2,17.067,33.067,17.067c21.333,0,39.467-18.133,39.467-39.467c0-13.867-6.4-25.6-17.067-33.067
	C448,288,451.2,296.533,451.2,304z"/>
<g>
</g>
<g>
</g>
<g>
</g>
<g>
</g>
<g>
</g>
<g>
</g>
<g>
</g>
<g>
</g>
<g>
</g>
<g>
</g>
<g>
</g>
<g>
</g>
<g>
</g>
<g>
</g>
<g>
</g>
</svg>
