<?xml version="1.0" encoding="utf-8"?>
<!-- Generator: Adobe Illustrator 25.2.0, SVG Export Plug-In . SVG Version: 6.00 Build 0)  -->
<svg version="1.1" id="Capa_1" xmlns="http://www.w3.org/2000/svg" xmlns:xlink="http://www.w3.org/1999/xlink" x="0px" y="0px"
	 viewBox="0 0 512.3 512.3" style="enable-background:new 0 0 512.3 512.3;" xml:space="preserve">
<style type="text/css">
	.st0{fill:#FFFFFF;}
	.st1{fill:#CED6E0;}
	.st2{fill:#41C6FB;}
	.st3{fill:#415A6B;}
	.st4{fill:#FF5033;}
	.st5{fill:#F3F3F3;}
	.st6{fill:#66C6B9;}
</style>
<path class="st0" d="M221.1,55.7c-67.2,67.2-105.6,105.6-172.8,172.8v213.3h345.6V228.5C326.7,161.3,289.3,124,221.1,55.7z"/>
<path class="st1" d="M221.1,62.1c-67.2,67.2-105.6,105.6-172.8,172.8v46.9l172.8-172.8l172.8,172.8v-46.9
	C326.7,166.7,289.3,129.3,221.1,62.1z"/>
<path class="st2" d="M434.4,200.8l-192-192c-11.7-11.7-29.9-11.7-41.6,0l-192,192c-11.7,11.7-11.7,29.9,0,41.6l0,0
	c11.7,11.7,29.9,11.7,41.6,0L221.1,71.7l170.7,170.7c11.7,11.7,29.9,11.7,41.6,0C446.1,230.7,446.1,212.5,434.4,200.8z"/>
<path class="st3" d="M280.8,442.9H163.5v-98.1c0-32,26.7-58.7,58.7-58.7l0,0c32,0,58.7,26.7,58.7,58.7L280.8,442.9L280.8,442.9z"/>
<circle class="st4" cx="387.5" cy="387.5" r="124.8"/>
<g>
	<circle class="st0" cx="387.5" cy="387.5" r="90.7"/>
	<circle class="st0" cx="387.5" cy="387.5" r="90.7"/>
</g>
<path class="st5" d="M478.1,387.5c0,3.2,0,6.4,0,9.6c-4.3-45.9-42.7-81.1-89.6-81.1s-85.3,35.2-89.6,81.1c0-3.2,0-6.4,0-9.6
	c0-50.1,40.5-90.7,90.7-90.7S478.1,338.4,478.1,387.5z"/>
<path class="st6" d="M375.7,343.7c4.3,4.3,6.4,9.6,6.4,16s-2.1,11.7-6.4,16s-8.5,6.4-14.9,6.4c-6.4,0-10.7-2.1-14.9-6.4
	c-4.3-4.3-6.4-9.6-6.4-16s2.1-11.7,6.4-16s9.6-6.4,14.9-6.4S371.5,339.5,375.7,343.7z M432.3,339.5l-71.5,98.1h-18.1l71.5-97.1h18.1
	V339.5z M366.1,367.2c1.1-2.1,2.1-4.3,2.1-7.5s-1.1-5.3-2.1-7.5c-1.1-2.1-3.2-3.2-5.3-3.2s-4.3,1.1-5.3,3.2
	c-1.1,2.1-2.1,4.3-2.1,7.5s1.1,5.3,2.1,7.5c1.1,2.1,3.2,3.2,5.3,3.2C362.9,370.4,364,368.3,366.1,367.2z M430.1,400.3
	c4.3,4.3,6.4,9.6,6.4,16s-2.1,11.7-6.4,16s-8.5,6.4-14.9,6.4c-6.4,0-10.7-2.1-14.9-6.4c-4.3-4.3-5.3-9.6-5.3-16s2.1-11.7,6.4-16
	s8.5-6.4,14.9-6.4C421.6,393.9,426.9,396,430.1,400.3z M421.6,423.7c1.1-2.1,2.1-4.3,2.1-7.5s-1.1-5.3-2.1-7.5
	c-1.1-2.1-3.2-3.2-5.3-3.2s-4.3,1.1-5.3,3.2c-1.1,2.1-2.1,4.3-2.1,7.5s1.1,5.3,2.1,7.5c1.1,2.1,3.2,3.2,5.3,3.2
	S420.5,425.9,421.6,423.7z"/>
</svg>
