<?xml version="1.0" encoding="utf-8"?>
<!-- Generator: Adobe Illustrator 25.2.0, SVG Export Plug-In . SVG Version: 6.00 Build 0)  -->
<svg version="1.1" id="Layer_1" xmlns="http://www.w3.org/2000/svg" xmlns:xlink="http://www.w3.org/1999/xlink" x="0px" y="0px"
	 viewBox="0 0 512 512" style="enable-background:new 0 0 512 512;" xml:space="preserve">
<style type="text/css">
	.st0{fill:#2CDBC4;}
	.st1{fill:#FEFFFF;}
	.st2{fill:#00B556;}
	.st3{fill:#56D0B7;}
	.st4{fill:#FFFFFF;}
	.st5{fill:#4A677C;}
	.st6{fill:#FF5033;}
</style>
<path class="st0" d="M430.9,20.3v156.8c0,10.7-8.5,20.3-20.3,20.3H86.4c-10.7,0-20.3-9.6-20.3-20.3V20.3C66.1,9.6,74.7,0,86.4,0
	h324.3C421.3,0,430.9,9.6,430.9,20.3z"/>
<path class="st1" d="M92.8,149.3V52.3c11.7,0,21.3-9.6,21.3-21.3h265.6c0,11.7,9.6,21.3,21.3,21.3v97.1c-11.7,0-21.3,9.6-21.3,21.3
	H114.1C114.1,158.9,104.5,149.3,92.8,149.3z"/>
<circle class="st2" cx="163.2" cy="101.3" r="11.7"/>
<g>
	<circle class="st3" cx="163.2" cy="101.3" r="11.7"/>
	<circle class="st3" cx="329.6" cy="101.3" r="11.7"/>
</g>
<path class="st0" d="M290.1,101.3c0,30.9-19.2,55.5-43.7,55.5c-3.2,0-6.4,0-9.6-1.1c-19.2-5.3-34.1-27.7-34.1-54.4
	c0-1.1,0-2.1,0-3.2c1.1-28.8,20.3-52.3,43.7-52.3C270.9,44.8,290.1,70.4,290.1,101.3z"/>
<path class="st4" d="M243.2,122.7v-19.2c-6.4-2.1-10.7-4.3-13.9-7.5c-3.2-3.2-4.3-7.5-4.3-12.8s2.1-9.6,5.3-12.8s7.5-6.4,12.8-6.4
	v-4.3h6.4V64c5.3,1.1,8.5,2.1,11.7,5.3c3.2,3.2,5.3,6.4,5.3,11.7L256,82.1c-1.1-3.2-2.1-6.4-5.3-7.5v18.1c7.5,2.1,12.8,4.3,14.9,7.5
	c3.2,3.2,4.3,7.5,4.3,12.8s-2.1,10.7-5.3,13.9c-3.2,4.3-8.5,6.4-13.9,7.5v8.5h-6.4v-8.5c-5.3-1.1-9.6-3.2-12.8-6.4
	c-3.2-3.2-5.3-8.5-6.4-13.9l11.7-1.1c0,2.1,1.1,4.3,3.2,6.4C240,120.5,241.1,122.7,243.2,122.7z M243.2,73.6
	c-2.1,1.1-3.2,2.1-4.3,3.2s-2.1,3.2-2.1,5.3s0,3.2,1.1,4.3s2.1,2.1,4.3,3.2v-16H243.2z M249.6,123.7c2.1,0,4.3-1.1,5.3-3.2
	s2.1-4.3,2.1-6.4s-1.1-4.3-2.1-5.3c-1.1-1.1-3.2-3.2-6.4-3.2v18.1H249.6z"/>
<path class="st5" d="M475.7,512H21.3C9.6,512,0,502.4,0,490.7v-368c0-11.7,9.6-21.3,21.3-21.3h454.4c11.7,0,21.3,9.6,21.3,21.3v368
	C497.1,502.4,487.5,512,475.7,512z"/>
<path class="st6" d="M512,397.9h-89.6c-45.9,0-83.2-37.3-83.2-83.2l0,0c0-45.9,37.3-83.2,83.2-83.2H512V397.9z"/>
<circle class="st4" cx="422.4" cy="314.7" r="39.5"/>
<path class="st4" d="M451.2,304c0,21.3-18.1,39.5-39.5,39.5c-8.5,0-16-2.1-22.4-6.4c7.5,10.7,19.2,17.1,33.1,17.1
	c21.3,0,39.5-18.1,39.5-39.5c0-13.9-6.4-25.6-17.1-33.1C448,288,451.2,296.5,451.2,304z"/>
</svg>
