<svg id="Capa_1" data-name="Capa 1" xmlns="http://www.w3.org/2000/svg" viewBox="0 0 512 512"><defs><style>.cls-1{fill:#fff;}.cls-2{fill:#59cdff;}.cls-3{fill:#415a6b;}.cls-4{fill:#ff664d;}</style></defs><path class="cls-1" d="M469.33,512H42.67A42.79,42.79,0,0,1,0,469.33V42.67A42.79,42.79,0,0,1,42.67,0H469.33A42.79,42.79,0,0,1,512,42.67V469.33A42.79,42.79,0,0,1,469.33,512Z"/><path class="cls-2" d="M469.33,137.6V53.33c0-6.4-4.26-10.66-10.66-10.66H53.33c-6.4,0-10.66,4.26-10.66,10.66V137.6c0,6.4,4.26,10.67,10.66,10.67H458.67C465.07,148.27,469.33,144,469.33,137.6Z"/><path class="cls-3" d="M312.53,458.67v-96c0-6.4-4.26-10.67-10.66-10.67h-92.8c-6.4,0-10.67,4.27-10.67,10.67v96c0,6.4,4.27,10.66,10.67,10.66h92.8C308.27,469.33,312.53,465.07,312.53,458.67Z"/><path class="cls-3" d="M199.47,201.6v96c0,6.4,4.26,10.67,10.66,10.67h92.8c6.4,0,10.67-4.27,10.67-10.67v-96c0-6.4-4.27-10.67-10.67-10.67h-92.8A10.69,10.69,0,0,0,199.47,201.6Z"/><path class="cls-4" d="M469.33,201.6V458.67c0,6.4-4.26,10.66-10.66,10.66h-92.8c-6.4,0-10.67-4.26-10.67-10.66V201.6c0-6.4,4.27-10.67,10.67-10.67h92.8A10.69,10.69,0,0,1,469.33,201.6Z"/><path class="cls-3" d="M146.13,352H53.33c-6.4,0-10.66,4.27-10.66,10.67v96c0,6.4,4.26,10.66,10.66,10.66h92.8c6.4,0,10.67-4.26,10.67-10.66v-96A10.69,10.69,0,0,0,146.13,352Z"/><path class="cls-3" d="M156.8,298.67v-96c0-6.4-4.27-10.67-10.67-10.67H53.33c-6.4,0-10.66,4.27-10.66,10.67v96c0,6.4,4.26,10.66,10.66,10.66h92.8C151.47,309.33,156.8,304,156.8,298.67Z"/></svg>